<?xml version="1.0" encoding="UTF-8" standalone="no"?>
<svg
   xmlns:dc="http://purl.org/dc/elements/1.1/"
   xmlns:cc="http://creativecommons.org/ns#"
   xmlns:rdf="http://www.w3.org/1999/02/22-rdf-syntax-ns#"
   xmlns:svg="http://www.w3.org/2000/svg"
   xmlns="http://www.w3.org/2000/svg"
   xmlns:sodipodi="http://sodipodi.sourceforge.net/DTD/sodipodi-0.dtd"
   xmlns:inkscape="http://www.inkscape.org/namespaces/inkscape"
   width="12"
   height="9"
   viewBox="0 0 12 9"
   fill="none"
   version="1.1"
   id="svg49"
   sodipodi:docname="container.svg"
   inkscape:version="0.92.4 (5da689c313, 2019-01-14)">
  <metadata
     id="metadata53">
    <rdf:RDF>
      <cc:Work
         rdf:about="">
        <dc:format>image/svg+xml</dc:format>
        <dc:type
           rdf:resource="http://purl.org/dc/dcmitype/StillImage" />
        <dc:title></dc:title>
      </cc:Work>
    </rdf:RDF>
  </metadata>
  <sodipodi:namedview
     pagecolor="#ffffff"
     bordercolor="#666666"
     borderopacity="1"
     objecttolerance="10"
     gridtolerance="10"
     guidetolerance="10"
     inkscape:pageopacity="0"
     inkscape:pageshadow="2"
     inkscape:window-width="1920"
     inkscape:window-height="1017"
     id="namedview51"
     showgrid="false"
     inkscape:zoom="64"
     inkscape:cx="5.359914"
     inkscape:cy="2.9054055"
     inkscape:window-x="-8"
     inkscape:window-y="-8"
     inkscape:window-maximized="1"
     inkscape:current-layer="g28" />
  <g
     filter="url(#filter0_i)"
     id="g28">
    <path
       d="m 0.96399016,-5.9912853 5.14351124,1.505e-4 -1.579e-4,5.48641554 -5.14351128,-1.505e-4 z"
       id="path2"
       inkscape:connector-curvature="0"
       style="fill:#de4848" />
    <path
       d="m 6.1072818,-5.9912069 4.8006162,1.471e-4 -1.44e-4,5.48641524 -4.8006267,-1.472e-4 z"
       id="path4"
       inkscape:connector-curvature="0"
       style="fill:#ee8c8c" />
    <path
       d="m 10.393603,-1.0199156 -0.342982,-3.44e-5 1.24e-4,-4.4577024 0.342904,1.48e-5 z"
       id="path6"
       inkscape:connector-curvature="0"
       style="fill:#ec5c5c" />
    <path
       d="m 9.7077883,-1.0189849 -0.3428559,5e-6 1.3e-4,-4.4577126 0.3429042,1.48e-5 z"
       id="path8"
       inkscape:connector-curvature="0"
       style="fill:#ec5c5c" />
    <path
       d="m 9.0218738,-1.0190336 -0.3428945,-4.7e-6 1.238e-4,-4.4577152 0.3429041,1.48e-5 z"
       id="path10"
       inkscape:connector-curvature="0"
       style="fill:#ec5c5c" />
    <path
       d="m 8.336155,-1.01904 -0.3429041,-1.48e-5 1.299e-4,-4.4577127 0.3429041,1.48e-5 z"
       id="path12"
       inkscape:connector-curvature="0"
       style="fill:#ec5c5c" />
    <path
       d="m 7.6504311,-1.0190271 -0.3429042,-1.48e-5 1.299e-4,-4.4577127 0.3428944,4.8e-6 z"
       id="path14"
       inkscape:connector-curvature="0"
       style="fill:#ec5c5c" />
    <path
       d="m 6.9644682,-1.0190887 -0.3429042,-1.48e-5 1.3e-4,-4.4577126 0.3429042,1.48e-5 z"
       id="path16"
       inkscape:connector-curvature="0"
       style="fill:#ec5c5c" />
    <path
       d="m 3.7069066,-0.50485276 -0.3429041,-1.47e-5 1.572e-4,-5.48641554 0.3429041,1.48e-5 z"
       id="path18"
       inkscape:connector-curvature="0"
       style="fill:#9e2a2a" />
    <path
       d="m 2.8496904,-4.7911653 -0.8572493,-2.69e-5 4.8e-6,-0.3428946 0.8572519,1.7e-5 z"
       id="path20"
       inkscape:connector-curvature="0"
       style="fill:#4d4d4d" />
    <path
       d="m 3.021258,-1.0191696 -0.3429041,-1.48e-5 1.471e-4,-4.9720579 0.3428945,4.7e-6 z"
       id="path22"
       inkscape:connector-curvature="0"
       style="fill:#808080" />
    <path
       d="m 5.0787085,-4.7910466 -0.8572592,-2.85e-5 1.48e-5,-0.3429042 0.8572591,2.85e-5 z"
       id="path24"
       inkscape:connector-curvature="0"
       style="fill:#4d4d4d" />
    <path
       d="m 4.3927077,-1.0191638 -0.3429014,-2.48e-5 1.38e-4,-4.9720604 0.3429042,1.48e-5 z"
       id="path26"
       inkscape:connector-curvature="0"
       style="fill:#808080" />
    <path
       style="fill:#de4848"
       inkscape:connector-curvature="0"
       id="path886"
       d="M 1.4133239,1.9496113 6.5568351,1.9497618 6.5566772,7.4361774 1.413166,7.4360269 Z" />
    <path
       style="fill:#ee8c8c"
       inkscape:connector-curvature="0"
       id="path888"
       d="m 6.5566155,1.9496897 4.8006165,1.471e-4 -1.44e-4,5.4864153 -4.800627,-1.472e-4 z" />
    <path
       style="fill:#ec5c5c"
       inkscape:connector-curvature="0"
       id="path890"
       d="m 10.842937,6.920981 -0.342982,-3.44e-5 1.24e-4,-4.4577024 0.342904,1.48e-5 z" />
    <path
       style="fill:#ec5c5c"
       inkscape:connector-curvature="0"
       id="path892"
       d="m 10.157122,6.9219117 -0.3428559,5e-6 1.3e-4,-4.4577126 0.3429039,1.48e-5 z" />
    <path
       style="fill:#ec5c5c"
       inkscape:connector-curvature="0"
       id="path894"
       d="m 9.4712075,6.921863 -0.3428945,-4.7e-6 1.238e-4,-4.4577152 0.3429041,1.48e-5 z" />
    <path
       style="fill:#ec5c5c"
       inkscape:connector-curvature="0"
       id="path896"
       d="m 8.7854887,6.9218566 -0.3429041,-1.48e-5 1.299e-4,-4.4577127 0.3429041,1.48e-5 z" />
    <path
       style="fill:#ec5c5c"
       inkscape:connector-curvature="0"
       id="path898"
       d="m 8.0997648,6.9218695 -0.3429042,-1.48e-5 1.299e-4,-4.4577127 0.3428944,4.8e-6 z" />
    <path
       style="fill:#ec5c5c"
       inkscape:connector-curvature="0"
       id="path900"
       d="m 7.4138019,6.9218079 -0.3429042,-1.48e-5 1.3e-4,-4.4577126 0.3429042,1.48e-5 z" />
    <path
       style="fill:#9e2a2a"
       inkscape:connector-curvature="0"
       id="path902"
       d="m 4.1562403,7.4360439 -0.3429041,-1.47e-5 1.572e-4,-5.4864156 0.3429041,1.48e-5 z" />
    <path
       style="fill:#4d4d4d"
       inkscape:connector-curvature="0"
       id="path904"
       d="m 3.2990241,3.1497313 -0.8572493,-2.69e-5 4.8e-6,-0.3428946 0.8572519,1.7e-5 z" />
    <path
       style="fill:#808080"
       inkscape:connector-curvature="0"
       id="path906"
       d="m 3.4705917,6.921727 -0.3429041,-1.48e-5 1.471e-4,-4.9720579 0.3428945,4.7e-6 z" />
    <path
       style="fill:#4d4d4d"
       inkscape:connector-curvature="0"
       id="path908"
       d="m 5.5280422,3.14985 -0.8572592,-2.85e-5 1.48e-5,-0.3429042 0.8572591,2.85e-5 z" />
    <path
       style="fill:#808080"
       inkscape:connector-curvature="0"
       id="path910"
       d="M 4.8420414,6.9217328 4.49914,6.921708 l 1.38e-4,-4.9720604 0.3429042,1.48e-5 z" />
  </g>
  <defs
     id="defs47">
    <filter
       id="filter0_i"
       x="0.42334"
       y="0.461021"
       width="11.025"
       height="7.87321"
       filterUnits="userSpaceOnUse"
       color-interpolation-filters="sRGB">
      <feFlood
         flood-opacity="0"
         result="BackgroundImageFix"
         id="feFlood30" />
      <feBlend
         mode="normal"
         in="SourceGraphic"
         in2="BackgroundImageFix"
         result="shape"
         id="feBlend32" />
      <feColorMatrix
         in="SourceAlpha"
         type="matrix"
         values="0 0 0 0 0 0 0 0 0 0 0 0 0 0 0 0 0 0 127 0"
         result="hardAlpha"
         id="feColorMatrix34" />
      <feOffset
         id="feOffset36" />
      <feGaussianBlur
         stdDeviation="1.90891"
         id="feGaussianBlur38" />
      <feComposite
         in2="hardAlpha"
         operator="arithmetic"
         k2="-1"
         k3="1"
         id="feComposite40" />
      <feColorMatrix
         type="matrix"
         values="0 0 0 0 0 0 0 0 0 0 0 0 0 0 0 0 0 0 0.5 0"
         id="feColorMatrix42" />
      <feBlend
         mode="normal"
         in2="shape"
         result="effect1_innerShadow"
         id="feBlend44" />
    </filter>
  </defs>
</svg>
