<?xml version="1.0" encoding="UTF-8" standalone="no"?>
<!-- Created with Inkscape (http://www.inkscape.org/) -->

<svg
   xmlns:dc="http://purl.org/dc/elements/1.1/"
   xmlns:cc="http://creativecommons.org/ns#"
   xmlns:rdf="http://www.w3.org/1999/02/22-rdf-syntax-ns#"
   xmlns:svg="http://www.w3.org/2000/svg"
   xmlns="http://www.w3.org/2000/svg"
   xmlns:sodipodi="http://sodipodi.sourceforge.net/DTD/sodipodi-0.dtd"
   xmlns:inkscape="http://www.inkscape.org/namespaces/inkscape"
   width="210mm"
   height="297mm"
   viewBox="0 0 210 297"
   version="1.1"
   id="svg986"
   inkscape:version="0.92.4 (5da689c313, 2019-01-14)"
   sodipodi:docname="containers.svg">
  <defs
     id="defs980" />
  <sodipodi:namedview
     id="base"
     pagecolor="#ffffff"
     bordercolor="#666666"
     borderopacity="1.0"
     inkscape:pageopacity="0.0"
     inkscape:pageshadow="2"
     inkscape:zoom="7.9195959"
     inkscape:cx="24.642611"
     inkscape:cy="826.68531"
     inkscape:document-units="mm"
     inkscape:current-layer="layer1"
     showgrid="false"
     inkscape:window-width="1920"
     inkscape:window-height="1017"
     inkscape:window-x="-8"
     inkscape:window-y="-8"
     inkscape:window-maximized="1" />
  <metadata
     id="metadata983">
    <rdf:RDF>
      <cc:Work
         rdf:about="">
        <dc:format>image/svg+xml</dc:format>
        <dc:type
           rdf:resource="http://purl.org/dc/dcmitype/StillImage" />
        <dc:title></dc:title>
      </cc:Work>
    </rdf:RDF>
  </metadata>
  <g
     inkscape:label="Layer 1"
     inkscape:groupmode="layer"
     id="layer1">
    <path
       style="fill:#de4848;stroke-width:0.3000398"
       inkscape:connector-curvature="0"
       id="path886"
       d="m 8.0880349,70.425382 0.8948203,8e-5 -2.76e-5,2.839032 -0.8948203,-8e-5 z"
       inkscape:export-xdpi="104.98241"
       inkscape:export-ydpi="104.98241" />
    <path
       style="fill:#aa3838;fill-opacity:1;stroke-width:0.48325849"
       inkscape:connector-curvature="0"
       id="path888"
       d="m 8.882108,70.425425 2.166579,7.2e-5 -6.9e-5,2.839035 -2.1665784,-7.6e-5 z"
       inkscape:export-xdpi="104.98241"
       inkscape:export-ydpi="104.98241" />
    <path
       style="fill:#ec5c5c;stroke-width:0.48325849"
       inkscape:connector-curvature="0"
       id="path890"
       d="m 10.816578,72.997898 -0.154797,-2.1e-5 5.5e-5,-2.306709 0.154762,7e-6 z"
       inkscape:export-xdpi="104.98241"
       inkscape:export-ydpi="104.98241" />
    <path
       style="fill:#ec5c5c;stroke-width:0.48325849"
       inkscape:connector-curvature="0"
       id="path892"
       d="m 10.50706,72.99838 -0.154729,10e-7 6.1e-5,-2.306716 0.154762,7e-6 z"
       inkscape:export-xdpi="104.98241"
       inkscape:export-ydpi="104.98241" />
    <path
       style="fill:#ec5c5c;stroke-width:0.48325849"
       inkscape:connector-curvature="0"
       id="path894"
       d="m 10.197499,72.998354 -0.154746,-5e-6 5.7e-5,-2.306717 0.154762,9e-6 z"
       inkscape:export-xdpi="104.98241"
       inkscape:export-ydpi="104.98241" />
    <path
       style="fill:#ec5c5c;stroke-width:0.48325849"
       inkscape:connector-curvature="0"
       id="path896"
       d="m 9.8880254,72.998349 -0.1547622,-7e-6 6e-5,-2.306713 0.154763,8e-6 z"
       inkscape:export-xdpi="104.98241"
       inkscape:export-ydpi="104.98241" />
    <path
       style="fill:#ec5c5c;stroke-width:0.48325849"
       inkscape:connector-curvature="0"
       id="path898"
       d="m 9.5785514,72.998357 -0.1547635,-9e-6 5.91e-5,-2.306716 0.1547452,5e-6 z"
       inkscape:export-xdpi="104.98241"
       inkscape:export-ydpi="104.98241" />
    <path
       style="fill:#ec5c5c;stroke-width:0.48325849"
       inkscape:connector-curvature="0"
       id="path900"
       d="m 9.2689679,72.998324 -0.1547624,-9e-6 5.8e-5,-2.306715 0.1547621,1.1e-5 z"
       inkscape:export-xdpi="104.98241"
       inkscape:export-ydpi="104.98241" />
    <path
       style="fill:#9e2a2a;stroke-width:0.3000398"
       inkscape:connector-curvature="0"
       id="path902"
       d="m 8.5652219,73.264423 -0.059657,-9e-6 2.69e-5,-2.839032 0.059657,6e-6 z"
       inkscape:export-xdpi="104.98241"
       inkscape:export-ydpi="104.98241" />
    <path
       style="fill:#4d4d4d;stroke-width:0.3000398"
       inkscape:connector-curvature="0"
       id="path904"
       d="m 8.4160914,71.046405 -0.1491363,-1.8e-5 8e-7,-0.177418 0.149137,8e-6 z"
       inkscape:export-xdpi="104.98241"
       inkscape:export-ydpi="104.98241" />
    <path
       style="fill:#808080;stroke-width:0.3000398"
       inkscape:connector-curvature="0"
       id="path906"
       d="m 8.4459392,72.998285 -0.059657,-1.1e-5 2.57e-5,-2.572872 0.05965,2e-6 z"
       inkscape:export-xdpi="104.98241"
       inkscape:export-ydpi="104.98241" />
    <path
       style="fill:#4d4d4d;stroke-width:0.3000398"
       inkscape:connector-curvature="0"
       id="path908"
       d="m 8.8038752,71.046464 -0.1491378,-1.5e-5 2.8e-6,-0.177456 0.1491375,1.4e-5 z"
       inkscape:export-xdpi="104.98241"
       inkscape:export-ydpi="104.98241" />
    <path
       style="fill:#808080;stroke-width:0.3000398"
       inkscape:connector-curvature="0"
       id="path910"
       d="m 8.6845313,72.998288 -0.059657,-1.5e-5 2.37e-5,-2.572873 0.059657,8e-6 z"
       inkscape:export-xdpi="104.98241"
       inkscape:export-ydpi="104.98241" />
    <path
       d="m 8.0880349,75.080855 0.8948203,7.8e-5 -2.76e-5,2.839034 -0.8948203,-8.1e-5 z"
       id="path1561"
       inkscape:connector-curvature="0"
       style="fill:#3737c8;stroke-width:0.3000398"
       inkscape:export-xdpi="104.98241"
       inkscape:export-ydpi="104.98241" />
    <path
       d="m 8.882108,75.080895 2.166579,7.4e-5 -6.9e-5,2.839037 -2.1665784,-7.6e-5 z"
       id="path1563"
       inkscape:connector-curvature="0"
       style="fill:#2e2e8d;fill-opacity:1;stroke-width:0.48325849"
       inkscape:export-xdpi="104.98241"
       inkscape:export-ydpi="104.98241" />
    <path
       d="m 10.816578,77.65337 -0.154797,-1.8e-5 5.5e-5,-2.306709 0.154762,6e-6 z"
       id="path1565"
       inkscape:connector-curvature="0"
       style="fill:#3737c8;fill-opacity:1;stroke-width:0.48325849"
       inkscape:export-xdpi="104.98241"
       inkscape:export-ydpi="104.98241" />
    <path
       d="m 10.50706,77.653852 -0.154729,10e-7 6.1e-5,-2.306714 0.154762,5e-6 z"
       id="path1567"
       inkscape:connector-curvature="0"
       style="fill:#3737c8;fill-opacity:1;stroke-width:0.48325849"
       inkscape:export-xdpi="104.98241"
       inkscape:export-ydpi="104.98241" />
    <path
       d="m 10.197499,77.653826 -0.154746,-5e-6 5.7e-5,-2.306715 0.154762,7e-6 z"
       id="path1569"
       inkscape:connector-curvature="0"
       style="fill:#3737c8;fill-opacity:1;stroke-width:0.48325849"
       inkscape:export-xdpi="104.98241"
       inkscape:export-ydpi="104.98241" />
    <path
       d="m 9.8880254,77.653821 -0.1547622,-5e-6 6e-5,-2.306715 0.154763,6e-6 z"
       id="path1571"
       inkscape:connector-curvature="0"
       style="fill:#3737c8;fill-opacity:1;stroke-width:0.48325849"
       inkscape:export-xdpi="104.98241"
       inkscape:export-ydpi="104.98241" />
    <path
       d="m 9.5785514,77.653827 -0.1547635,-8e-6 5.91e-5,-2.306713 0.1547452,10e-7 z"
       id="path1573"
       inkscape:connector-curvature="0"
       style="fill:#3737c8;fill-opacity:1;stroke-width:0.48325849"
       inkscape:export-xdpi="104.98241"
       inkscape:export-ydpi="104.98241" />
    <path
       d="m 9.2689679,77.653798 -0.1547624,-8e-6 5.8e-5,-2.306715 0.1547621,9e-6 z"
       id="path1575"
       inkscape:connector-curvature="0"
       style="fill:#3737c8;fill-opacity:1;stroke-width:0.48325849"
       inkscape:export-xdpi="104.98241"
       inkscape:export-ydpi="104.98241" />
    <path
       d="m 8.5652219,77.919898 -0.059657,-1.2e-5 2.69e-5,-2.839031 0.059657,5e-6 z"
       id="path1577"
       inkscape:connector-curvature="0"
       style="fill:#212178;stroke-width:0.3000398"
       inkscape:export-xdpi="104.98241"
       inkscape:export-ydpi="104.98241" />
    <path
       d="m 8.4160914,75.701877 -0.1491363,-1.6e-5 8e-7,-0.177436 0.149137,1e-5 z"
       id="path1579"
       inkscape:connector-curvature="0"
       style="fill:#4d4d4d;stroke-width:0.3000398"
       inkscape:export-xdpi="104.98241"
       inkscape:export-ydpi="104.98241" />
    <path
       d="m 8.4459392,77.653754 -0.059657,-5e-6 2.57e-5,-2.572872 0.05965,10e-7 z"
       id="path1581"
       inkscape:connector-curvature="0"
       style="fill:#808080;stroke-width:0.3000398"
       inkscape:export-xdpi="104.98241"
       inkscape:export-ydpi="104.98241" />
    <path
       d="m 8.8038752,75.701936 -0.1491378,-1.6e-5 2.8e-6,-0.177454 0.1491375,1.5e-5 z"
       id="path1583"
       inkscape:connector-curvature="0"
       style="fill:#4d4d4d;stroke-width:0.3000398"
       inkscape:export-xdpi="104.98241"
       inkscape:export-ydpi="104.98241" />
    <path
       d="m 8.6845313,77.653759 -0.059657,-1.1e-5 2.37e-5,-2.572873 0.059657,4e-6 z"
       id="path1585"
       inkscape:connector-curvature="0"
       style="fill:#808080;stroke-width:0.3000398"
       inkscape:export-xdpi="104.98241"
       inkscape:export-ydpi="104.98241" />
  </g>
</svg>
